<?xml version="1.0" encoding="UTF-8" standalone="no"?>
<!-- Uploaded to: SVG Repo, www.svgrepo.com, Generator: SVG Repo Mixer Tools -->

<svg
   fill="#000000"
   height="800px"
   width="800px"
   version="1.1"
   id="Capa_1"
   viewBox="0 0 487 487"
   xml:space="preserve"
   sodipodi:docname="camera.svg"
   inkscape:version="1.2.2 (b0a8486541, 2022-12-01)"
   xmlns:inkscape="http://www.inkscape.org/namespaces/inkscape"
   xmlns:sodipodi="http://sodipodi.sourceforge.net/DTD/sodipodi-0.dtd"
   xmlns="http://www.w3.org/2000/svg"
   xmlns:svg="http://www.w3.org/2000/svg"><defs
   id="defs54" /><sodipodi:namedview
   id="namedview52"
   pagecolor="#ffffff"
   bordercolor="#000000"
   borderopacity="0.25"
   inkscape:showpageshadow="2"
   inkscape:pageopacity="0.0"
   inkscape:pagecheckerboard="0"
   inkscape:deskcolor="#d1d1d1"
   showgrid="false"
   inkscape:zoom="1.0525"
   inkscape:cx="210.45131"
   inkscape:cy="400.47506"
   inkscape:window-width="1452"
   inkscape:window-height="749"
   inkscape:window-x="66"
   inkscape:window-y="118"
   inkscape:window-maximized="0"
   inkscape:current-layer="Capa_1" />
<g
   id="g49"
   style="fill:#008000">
	<g
   id="g47"
   style="fill:#008000">
		<path
   d="M308.1,277.95c0,35.7-28.9,64.6-64.6,64.6s-64.6-28.9-64.6-64.6s28.9-64.6,64.6-64.6S308.1,242.25,308.1,277.95z     M440.3,116.05c25.8,0,46.7,20.9,46.7,46.7v122.4v103.8c0,27.5-22.3,49.8-49.8,49.8H49.8c-27.5,0-49.8-22.3-49.8-49.8v-103.9    v-122.3l0,0c0-25.8,20.9-46.7,46.7-46.7h93.4l4.4-18.6c6.7-28.8,32.4-49.2,62-49.2h74.1c29.6,0,55.3,20.4,62,49.2l4.3,18.6H440.3z     M97.4,183.45c0-12.9-10.5-23.4-23.4-23.4c-13,0-23.5,10.5-23.5,23.4s10.5,23.4,23.4,23.4C86.9,206.95,97.4,196.45,97.4,183.45z     M358.7,277.95c0-63.6-51.6-115.2-115.2-115.2s-115.2,51.6-115.2,115.2s51.6,115.2,115.2,115.2S358.7,341.55,358.7,277.95z"
   id="path45"
   style="fill:#008000" />
	</g>
</g>
</svg>
